<svg width="1920" height="1080" viewBox="0 0 1920 1080" xmlns="http://www.w3.org/2000/svg">
  <!-- Fond sombre avec gradient -->
  <rect width="1920" height="1080" fill="#0a0a0a"/>
  
  <!-- Grille de points avec effet de profondeur -->
  <g opacity="0.3">
    <g id="grid">
      <pattern id="dotPattern" x="0" y="0" width="50" height="50" patternUnits="userSpaceOnUse">
        <circle cx="25" cy="25" r="1" fill="#ffffff"/>
      </pattern>
      <rect width="1920" height="1080" fill="url(#dotPattern)"/>
    </g>
  </g>
  
  <!-- Cercles de gradient pour effet de lumière -->
  <circle cx="600" cy="540" r="400" fill="url(#greenGlow)" opacity="0.15"/>
  <circle cx="1400" cy="540" r="500" fill="url(#blueGlow)" opacity="0.15"/>
  
  <!-- Définition des gradients -->
  <defs>
    <radialGradient id="greenGlow" cx="0.5" cy="0.5" r="0.5" fx="0.5" fy="0.5">
      <stop offset="0%" stop-color="#00ff88"/>
      <stop offset="100%" stop-color="#0a0a0a" stop-opacity="0"/>
    </radialGradient>
    
    <radialGradient id="blueGlow" cx="0.5" cy="0.5" r="0.5" fx="0.5" fy="0.5">
      <stop offset="0%" stop-color="#00d4ff"/>
      <stop offset="100%" stop-color="#0a0a0a" stop-opacity="0"/>
    </radialGradient>
  </defs>
  
  <!-- Lignes abstraites pour effet tech -->
  <g opacity="0.2" stroke-width="1">
    <path d="M 0,300 C 500,200 1000,400 1920,250" stroke="#00ff88" fill="none"/>
    <path d="M 0,600 C 600,500 1200,700 1920,550" stroke="#00d4ff" fill="none"/>
    <path d="M 0,900 C 700,800 1400,950 1920,850" stroke="#00ff88" fill="none"/>
  </g>
  
  <!-- Particules brillantes -->
  <g>
    <circle cx="300" cy="200" r="2" fill="#00ff88"/>
    <circle cx="800" cy="300" r="1.5" fill="#ffffff"/>
    <circle cx="1200" cy="400" r="2" fill="#00d4ff"/>
    <circle cx="1600" cy="200" r="1.5" fill="#ffffff"/>
    <circle cx="400" cy="700" r="2" fill="#00d4ff"/>
    <circle cx="900" cy="800" r="1.5" fill="#ffffff"/>
    <circle cx="1400" cy="600" r="2" fill="#00ff88"/>
    <circle cx="1700" cy="900" r="1.5" fill="#ffffff"/>
  </g>
</svg>